<svg width="33" height="35" viewBox="0 0 33 35" fill="none" xmlns="http://www.w3.org/2000/svg">
<rect x="0.5" y="0.28125" width="32" height="32" rx="16" fill="#D6001C"/>
<path d="M8.14826 20.2812V11.554H11.3443C11.9636 11.554 12.4764 11.6562 12.8826 11.8608C13.2889 12.0625 13.5929 12.3366 13.7946 12.6832C13.9963 13.027 14.0971 13.4148 14.0971 13.8466C14.0971 14.2102 14.0304 14.517 13.8968 14.767C13.7633 15.0142 13.5843 15.2131 13.3599 15.3636C13.1383 15.5114 12.894 15.6193 12.627 15.6875V15.7727C12.9167 15.7869 13.1994 15.8807 13.475 16.054C13.7534 16.2244 13.9835 16.4673 14.1653 16.7827C14.3471 17.098 14.438 17.4815 14.438 17.9332C14.438 18.3793 14.3329 18.7798 14.1227 19.1349C13.9153 19.4872 13.5943 19.767 13.1596 19.9744C12.725 20.179 12.1696 20.2812 11.4934 20.2812H8.14826ZM9.46502 19.152H11.3656C11.9963 19.152 12.448 19.0298 12.7207 18.7855C12.9934 18.5412 13.1298 18.2358 13.1298 17.8693C13.1298 17.5937 13.0602 17.3409 12.921 17.1108C12.7818 16.8807 12.5829 16.6974 12.3244 16.5611C12.0687 16.4247 11.7647 16.3565 11.4125 16.3565H9.46502V19.152ZM9.46502 15.3295H11.2292C11.5247 15.3295 11.7903 15.2727 12.0261 15.1591C12.2647 15.0455 12.4537 14.8864 12.5929 14.6818C12.7349 14.4744 12.8059 14.2301 12.8059 13.9489C12.8059 13.5881 12.6795 13.2855 12.4267 13.0412C12.1738 12.7969 11.786 12.6747 11.2633 12.6747H9.46502V15.3295ZM15.9998 11.554H17.5978L20.3762 18.3381H20.4785L23.2569 11.554H24.8549V20.2812H23.6021V13.9659H23.5211L20.9473 20.2685H19.9075L17.3336 13.9616H17.2527V20.2812H15.9998V11.554Z" fill="white"/>
<circle cx="26.5" cy="28.2812" r="5" fill="#38A169" stroke="white" stroke-width="2"/>
</svg>
