<svg width="38" height="39" viewBox="0 0 38 39" fill="none" xmlns="http://www.w3.org/2000/svg">
<circle cx="19" cy="19.2812" r="19" fill="#FEE5E5" fillOpacity="0.6"/>
<path d="M27.6203 15.7312C26.5703 11.1112 22.5403 9.03125 19.0003 9.03125C19.0003 9.03125 19.0003 9.03125 18.9903 9.03125C15.4603 9.03125 11.4203 11.1012 10.3703 15.7212C9.20034 20.8812 12.3603 25.2512 15.2203 28.0012C16.2803 29.0212 17.6403 29.5312 19.0003 29.5312C20.3603 29.5312 21.7203 29.0212 22.7703 28.0012C25.6303 25.2512 28.7903 20.8912 27.6203 15.7312ZM19.0003 20.7413C17.2603 20.7413 15.8503 19.3313 15.8503 17.5913C15.8503 15.8513 17.2603 14.4412 19.0003 14.4412C20.7403 14.4412 22.1503 15.8513 22.1503 17.5913C22.1503 19.3313 20.7403 20.7413 19.0003 20.7413Z" fill="#D6001C"/>
<path d="M27.6203 15.7312C26.5703 11.1112 22.5403 9.03125 19.0003 9.03125C19.0003 9.03125 19.0003 9.03125 18.9903 9.03125C15.4603 9.03125 11.4203 11.1012 10.3703 15.7212C9.20034 20.8812 12.3603 25.2512 15.2203 28.0012C16.2803 29.0212 17.6403 29.5312 19.0003 29.5312C20.3603 29.5312 21.7203 29.0212 22.7703 28.0012C25.6303 25.2512 28.7903 20.8912 27.6203 15.7312ZM19.0003 20.7413C17.2603 20.7413 15.8503 19.3313 15.8503 17.5913C15.8503 15.8513 17.2603 14.4412 19.0003 14.4412C20.7403 14.4412 22.1503 15.8513 22.1503 17.5913C22.1503 19.3313 20.7403 20.7413 19.0003 20.7413Z" fill="#D6001C"/>
</svg>
